<svg width="89" height="19" viewBox="0 0 89 19" fill="none" xmlns="http://www.w3.org/2000/svg">
<path d="M1 6.7013L1.74598 6.03533L0 4.07961V6.7013H1ZM9 15.6623L8.25402 16.3283L10 18.284V15.6623H9ZM2 18V6.7013H0V18H2ZM0.254024 7.36727L8.25402 16.3283L9.74598 14.9964L1.74598 6.03533L0.254024 7.36727ZM10 15.6623V3H8V15.6623H10Z" fill="#00168A"/>
<path d="M13 10.6957L12.3169 9.96536L11.5694 10.6645L12.2858 11.3956L13 10.6957ZM19.4748 3.26971L12.3169 9.96536L13.6831 11.4259L20.841 4.73029L19.4748 3.26971ZM12.2858 11.3956L19.4437 18.6999L20.8721 17.3001L13.7142 9.99574L12.2858 11.3956ZM13 11.6957H21V9.69565H13V11.6957Z" fill="#00168A"/>
<path d="M38 10.6957L37.2697 10.0125L36.6578 10.6666L37.2409 11.3466L38 10.6957ZM43.5329 3.31687L37.2697 10.0125L38.7303 11.3788L44.9935 4.68313L43.5329 3.31687ZM37.2409 11.3466L43.504 18.6509L45.0223 17.3491L38.7591 10.0447L37.2409 11.3466ZM38 11.6957H45V9.69565H38V11.6957Z" fill="#00168A"/>
<path d="M26 4L26.615 3.2115L25 1.95177V4H26ZM32.6667 9.2L33.2817 9.9885L34.2926 9.2L33.2817 8.4115L32.6667 9.2ZM25.385 4.7885L32.0516 9.9885L33.2817 8.4115L26.615 3.2115L25.385 4.7885ZM27 18V14.4H25V18H27ZM27 14.4V4H25V14.4H27ZM32.0516 8.4115L28.7183 11.0115L29.9484 12.5885L33.2817 9.9885L32.0516 8.4115ZM28.7183 11.0115L25.385 13.6115L26.615 15.1885L29.9484 12.5885L28.7183 11.0115ZM34.799 17.3986L30.1323 11.1986L28.5344 12.4014L33.201 18.6014L34.799 17.3986Z" fill="#00168A"/>
<path d="M50 4V18" stroke="#00168A" stroke-width="2" stroke-linejoin="bevel"/>
<path d="M55 17V4L64 10.7826L55 17Z" stroke="#00168A" stroke-width="2"/>
<path d="M68 17L69.2955 13.2576M77 17L75.7045 13.2576M75.7045 13.2576L72.5 4L69.2955 13.2576M75.7045 13.2576H69.2955" stroke="#00168A" stroke-width="2"/>
<path d="M86.4375 4L81 7.83562L87 13.7808L81.5625 18" stroke="#00168A" stroke-width="2"/>
</svg>
